<mxfile host="app.diagrams.net" modified="2021-03-15T00:27:26.358Z" agent="5.0 (Macintosh; Intel Mac OS X 10_14_3) AppleWebKit/537.36 (KHTML, like Gecko) Chrome/89.0.4389.82 Safari/537.36" etag="SkESy6mJq-qaEgWd8xa8" version="14.4.8" type="github">
  <diagram id="3228e29e-7158-1315-38df-8450db1d8a1d" name="Page-1">
    <mxGraphModel dx="577" dy="497" grid="1" gridSize="10" guides="1" tooltips="1" connect="1" arrows="1" fold="1" page="1" pageScale="1" pageWidth="600" pageHeight="300" background="#ffffff" math="0" shadow="0">
      <root>
        <mxCell id="0" />
        <mxCell id="1" parent="0" />
        <mxCell id="ORzlP0sGd4nqnSAyvKW6-2" value="&lt;font style=&quot;font-size: 30px&quot;&gt;msg2&lt;/font&gt;" style="rounded=1;whiteSpace=wrap;html=1;fillColor=#4A919B;strokeColor=#4A919B;" parent="1" vertex="1">
          <mxGeometry x="130" y="130" width="120" height="60" as="geometry" />
        </mxCell>
        <mxCell id="ORzlP0sGd4nqnSAyvKW6-3" value="&lt;font style=&quot;font-size: 30px&quot;&gt;msg1&lt;/font&gt;" style="rounded=1;whiteSpace=wrap;html=1;fillColor=#FDD276;" parent="1" vertex="1">
          <mxGeometry x="370" y="130" width="120" height="60" as="geometry" />
        </mxCell>
        <mxCell id="ORzlP0sGd4nqnSAyvKW6-6" value="" style="endArrow=none;html=1;strokeWidth=5;" parent="1" edge="1">
          <mxGeometry width="50" height="50" relative="1" as="geometry">
            <mxPoint x="100" y="220" as="sourcePoint" />
            <mxPoint x="510" y="220" as="targetPoint" />
          </mxGeometry>
        </mxCell>
        <mxCell id="ORzlP0sGd4nqnSAyvKW6-7" value="" style="endArrow=none;html=1;strokeWidth=5;" parent="1" edge="1">
          <mxGeometry width="50" height="50" relative="1" as="geometry">
            <mxPoint x="100" y="100" as="sourcePoint" />
            <mxPoint x="510" y="100" as="targetPoint" />
          </mxGeometry>
        </mxCell>
        <mxCell id="ORzlP0sGd4nqnSAyvKW6-8" value="" style="fontColor=#0066CC;verticalAlign=top;verticalLabelPosition=bottom;labelPosition=center;align=center;html=1;outlineConnect=0;strokeColor=#6881B3;gradientColor=none;gradientDirection=north;strokeWidth=2;shape=mxgraph.networks.mobile;fillColor=#F19C99;" parent="1" vertex="1">
          <mxGeometry x="20" y="110" width="50" height="100" as="geometry" />
        </mxCell>
        <mxCell id="ORzlP0sGd4nqnSAyvKW6-9" value="&lt;font style=&quot;font-size: 50px&quot;&gt;A&lt;/font&gt;" style="text;html=1;strokeColor=none;fillColor=none;align=center;verticalAlign=middle;whiteSpace=wrap;rounded=0;" parent="1" vertex="1">
          <mxGeometry x="25" y="150" width="40" height="20" as="geometry" />
        </mxCell>
        <mxCell id="ORzlP0sGd4nqnSAyvKW6-10" value="" style="fontColor=#0066CC;verticalAlign=top;verticalLabelPosition=bottom;labelPosition=center;align=center;html=1;outlineConnect=0;strokeColor=#6881B3;gradientColor=none;gradientDirection=north;strokeWidth=2;shape=mxgraph.networks.mobile;fillColor=#00994D;" parent="1" vertex="1">
          <mxGeometry x="530" y="110" width="50" height="100" as="geometry" />
        </mxCell>
        <mxCell id="ORzlP0sGd4nqnSAyvKW6-11" value="&lt;font style=&quot;font-size: 50px&quot;&gt;B&lt;/font&gt;" style="text;html=1;strokeColor=none;fillColor=none;align=center;verticalAlign=middle;whiteSpace=wrap;rounded=0;" parent="1" vertex="1">
          <mxGeometry x="535" y="150" width="40" height="20" as="geometry" />
        </mxCell>
        <mxCell id="ORzlP0sGd4nqnSAyvKW6-12" value="" style="shape=flexArrow;endArrow=classic;html=1;strokeWidth=5;strokeColor=#5A6EAB;fillColor=#5A6EAB;" parent="1" edge="1">
          <mxGeometry width="50" height="50" relative="1" as="geometry">
            <mxPoint x="275" y="60" as="sourcePoint" />
            <mxPoint x="325" y="60" as="targetPoint" />
          </mxGeometry>
        </mxCell>
        <mxCell id="an2hSqa7HfipZ-vLgrpj-1" value="小包" style="text;html=1;strokeColor=none;fillColor=none;align=center;verticalAlign=middle;whiteSpace=wrap;rounded=0;" vertex="1" parent="1">
          <mxGeometry x="170" y="190" width="40" height="20" as="geometry" />
        </mxCell>
        <mxCell id="an2hSqa7HfipZ-vLgrpj-2" value="小包" style="text;html=1;strokeColor=none;fillColor=none;align=center;verticalAlign=middle;whiteSpace=wrap;rounded=0;" vertex="1" parent="1">
          <mxGeometry x="410" y="190" width="40" height="20" as="geometry" />
        </mxCell>
      </root>
    </mxGraphModel>
  </diagram>
</mxfile>
